<svg width="264" height="264" viewBox="0 0 264 264" fill="none" xmlns="http://www.w3.org/2000/svg">
<g clip-path="url(#clip0_316_389)">
<path d="M104.195 83.5752C104.074 83.8238 103.972 84.0816 103.892 84.3461L80.1549 91.5003L75.7599 87.3823L68.6782 93.2028L75.7502 101.249C76.3215 101.899 77.0883 102.346 77.9354 102.523C78.7825 102.7 79.6642 102.598 80.4481 102.231L105.997 90.2838C106.886 90.8723 107.932 91.1763 108.998 91.1555C110.063 91.1347 111.097 90.7901 111.962 90.1674C112.826 89.5447 113.481 88.6735 113.839 87.6696C114.196 86.6658 114.24 85.5769 113.963 84.5478C113.687 83.5187 113.103 82.5981 112.291 81.9085C111.479 81.2189 110.476 80.793 109.415 80.6874C108.355 80.5819 107.287 80.8016 106.355 81.3175C105.423 81.8333 104.669 82.6208 104.195 83.5752Z" fill="#FFB6B6"/>
<path d="M79.3669 91.7897L70.634 99.0573C70.3856 99.2641 70.0954 99.4149 69.7834 99.4994C69.4714 99.584 69.1448 99.6003 68.826 99.5472C68.5071 99.4942 68.2034 99.373 67.9355 99.192C67.6677 99.011 67.442 98.7744 67.2739 98.4984L61.3824 88.8241C60.3325 87.5467 59.8319 85.9052 59.9901 84.2594C60.1484 82.6135 60.9526 81.0975 62.2266 80.0435C63.5007 78.9896 65.1405 78.4837 66.7869 78.6367C68.4333 78.7897 69.9518 79.5891 71.0098 80.8597L79.4276 88.3839C79.6686 88.5994 79.8602 88.8643 79.9896 89.1606C80.1189 89.4568 80.1829 89.7775 80.1771 90.1007C80.1714 90.4239 80.096 90.7421 79.9562 91.0336C79.8164 91.325 79.6154 91.5829 79.3669 91.7897Z" fill="#3F3D56"/>
<path d="M102.818 212.794L106.619 210.373C106.794 208.247 106.848 206.113 106.782 203.981L104.811 204.484L106.757 203.245C106.649 200.609 106.411 198.871 106.411 198.871C106.411 198.871 98.7259 203.863 93.8244 210.629L94.6602 216.352L92.6669 212.35C92.1571 213.166 91.6991 214.013 91.2956 214.887C87.2572 223.709 86.8648 232.18 90.4191 233.807C93.9735 235.434 100.129 229.601 104.167 220.779C105.385 217.941 106.161 214.934 106.468 211.862L102.818 212.794Z" fill="#E6E6E6"/>
<path d="M110.626 221.31L115.131 221.202C116.38 219.472 117.529 217.673 118.575 215.814L116.627 215.226L118.934 215.171C120.204 212.859 120.899 211.248 120.899 211.248C120.899 211.248 111.739 211.549 104.046 214.808L101.803 220.139L102.166 215.682C101.307 216.117 100.477 216.606 99.6803 217.146C91.6629 222.61 86.9484 229.659 89.1501 232.889C91.3518 236.119 99.636 234.307 107.653 228.842C110.163 227.043 112.382 224.87 114.233 222.398L110.626 221.31Z" fill="#E6E6E6"/>
<path d="M83.9969 229.266L88.9159 229.265L90.7611 210.133L83.9961 210.293L83.9969 229.266Z" fill="#FFB6B6"/>
<path d="M82.7422 227.66L92.4293 227.66C94.0665 227.66 95.6371 228.31 96.7948 229.468C97.9525 230.626 98.6029 232.196 98.6031 233.833V234.034L82.7425 234.034L82.7422 227.66Z" fill="#2F2E41"/>
<path d="M25.9653 215.067L29.1916 218.78L45.0486 208.103L40.2869 202.623L25.9653 215.067Z" fill="#FFB6B6"/>
<path d="M26.355 213.066L32.7086 220.378C33.7823 221.614 34.3214 223.226 34.2068 224.86C34.0921 226.493 33.3335 228.014 32.0976 229.088L31.9462 229.219L21.5435 217.247L26.355 213.066Z" fill="#2F2E41"/>
<path d="M0.479119 234.638H134.605C134.732 234.638 134.853 234.588 134.943 234.498C135.032 234.409 135.083 234.287 135.083 234.16C135.083 234.034 135.032 233.912 134.943 233.823C134.853 233.733 134.732 233.683 134.605 233.683H0.479119C0.416267 233.682 0.353992 233.695 0.295871 233.719C0.237751 233.743 0.184926 233.778 0.140418 233.822C0.0959096 233.866 0.0605951 233.919 0.0365003 233.977C0.0124054 234.035 0 234.098 0 234.16C0 234.223 0.0124054 234.285 0.0365003 234.343C0.0605951 234.402 0.0959096 234.454 0.140418 234.499C0.184926 234.543 0.237751 234.578 0.295871 234.602C0.353992 234.626 0.416267 234.638 0.479119 234.638Z" fill="#CACACA"/>
<path d="M73.1895 184.23L83.5388 222.571H91.5632L89.8007 180.638L85.1486 139.783L68.251 138.885L73.1895 184.23Z" fill="#2F2E41"/>
<path d="M55.2318 139.783C55.2318 139.783 54.3339 145.619 57.9255 151.904C61.5171 158.19 59.2724 179.291 59.2724 179.291L28.9731 209.732C28.9731 209.732 33.682 217.901 35.9268 217.452C38.1716 217.003 73.6389 188.27 73.6389 188.27L85.1491 141.579L55.2318 139.783Z" fill="#2F2E41"/>
<path d="M71.9382 71.8193C77.6411 71.8193 82.2642 67.1963 82.2642 61.4934C82.2642 55.7906 77.6411 51.1675 71.9382 51.1675C66.2354 51.1675 61.6123 55.7906 61.6123 61.4934C61.6123 67.1963 66.2354 71.8193 71.9382 71.8193Z" fill="#FFB6B6"/>
<path d="M71.5022 77.7302C71.5022 77.7302 59.4655 73.1736 59.4655 74.5205C59.4655 75.8673 47.5992 87.2555 50.2929 102.071C52.9866 116.886 56.1293 124.07 54.7824 132.151C53.4355 140.232 54.3334 142.028 54.3334 142.028C54.3334 142.028 85.5976 144.722 86.0466 141.579C86.4955 138.436 84.7425 133.643 84.7425 132.296C84.7425 130.949 72.337 81.1962 71.5022 77.7302Z" fill="#3F3D56"/>
<path d="M67.2645 67.6984C68.1005 67.2564 69.0715 67.1653 69.9763 66.8905C73.2135 65.9076 75.3821 62.2482 74.6897 58.9367C74.5618 58.512 74.5044 58.0691 74.5197 57.6258C74.6407 56.6451 75.6443 56.0122 76.6066 55.7875C77.5689 55.5628 78.5928 55.5954 79.5126 55.2341C80.9327 54.6762 81.876 53.2167 82.0805 51.7047C82.2275 50.1739 81.8866 48.6359 81.1067 47.3105L80.7591 48.3107C80.2289 47.862 79.8354 47.2734 79.6233 46.6121C79.2283 46.6785 78.8569 46.8452 78.5447 47.0962C78.2326 47.3472 77.9901 47.6742 77.8405 48.0458C77.2825 48.3748 77.2021 47.0236 76.5859 46.8243C76.3148 46.7905 76.0409 46.8581 75.8166 47.014C74.5748 47.5932 73.1319 47.098 71.7998 46.777C69.493 46.2236 67.0884 46.2208 64.7803 46.7687C63.2469 47.1345 61.7291 47.7714 60.6318 48.9032C59.7736 49.8775 59.1144 51.0104 58.6912 52.2379C57.5143 55.1997 56.7369 58.4044 57.1254 61.5677C57.4489 64.1562 58.5319 66.591 60.2376 68.5648C61.1261 69.5885 64.0252 73.1602 65.6148 72.5513C67.6122 71.7861 64.9111 68.9427 67.2645 67.6984Z" fill="#2F2E41"/>
<path opacity="0.2" d="M84.7815 157.267L72.9673 188.243L73.5642 188.471L85.3783 157.495L84.7815 157.267Z" fill="black"/>
<path d="M110.285 78.9341C109.533 78.935 108.813 79.2339 108.281 79.7653C107.75 80.2968 107.451 81.0173 107.45 81.7688V113.282C107.451 114.033 107.75 114.754 108.281 115.285C108.813 115.816 109.533 116.115 110.285 116.116H261.167C261.918 116.115 262.639 115.816 263.17 115.285C263.702 114.754 264.001 114.033 264.002 113.282V81.7688C264.001 81.0173 263.702 80.2968 263.17 79.7653C262.639 79.2339 261.918 78.935 261.167 78.9341L110.285 78.9341Z" fill="#E6E6E6"/>
<path d="M111.304 81.1445C110.868 81.145 110.45 81.3183 110.142 81.6264C109.834 81.9345 109.661 82.3523 109.66 82.7881V112.262C109.661 112.698 109.834 113.116 110.142 113.424C110.45 113.732 110.868 113.905 111.304 113.906H260.147C260.583 113.905 261.001 113.732 261.309 113.424C261.617 113.116 261.79 112.698 261.791 112.262V82.7881C261.79 82.3523 261.617 81.9346 261.309 81.6265C261.001 81.3183 260.583 81.145 260.147 81.1445H111.304Z" fill="white"/>
<path d="M250.802 105.823C251.508 105.822 252.185 105.54 252.685 105.04C253.184 104.54 253.465 103.863 253.466 103.157C253.467 102.45 253.188 101.772 252.69 101.271C252.192 100.77 251.516 100.486 250.809 100.482C250.807 100.482 250.804 100.482 250.802 100.482H124.907C124.2 100.485 123.524 100.768 123.025 101.268C122.527 101.769 122.247 102.447 122.247 103.153C122.247 103.859 122.527 104.537 123.025 105.037C123.524 105.538 124.2 105.821 124.907 105.823H250.802Z" fill="#E6E6E6"/>
<path d="M179.08 94.2214C179.431 94.2218 179.779 94.153 180.103 94.019C180.428 93.885 180.722 93.6884 180.971 93.4404C181.219 93.1923 181.416 92.8978 181.55 92.5736C181.685 92.2494 181.754 91.9018 181.754 91.5509C181.754 91.1999 181.685 90.8524 181.55 90.5282C181.416 90.2039 181.219 89.9094 180.971 89.6614C180.722 89.4134 180.428 89.2167 180.103 89.0827C179.779 88.9487 179.431 88.8799 179.08 88.8804H124.907C124.556 88.8799 124.209 88.9487 123.884 89.0827C123.56 89.2167 123.265 89.4134 123.017 89.6614C122.768 89.9094 122.571 90.2039 122.437 90.5282C122.303 90.8524 122.233 91.1999 122.233 91.5509C122.233 91.9018 122.303 92.2494 122.437 92.5736C122.571 92.8978 122.768 93.1923 123.017 93.4404C123.265 93.6884 123.56 93.885 123.884 94.019C124.209 94.153 124.556 94.2218 124.907 94.2214H179.08Z" fill="#12B886"/>
<path d="M132.337 139.737C131.805 139.737 131.295 139.949 130.919 140.325C130.543 140.701 130.332 141.211 130.331 141.743V164.044C130.332 164.576 130.543 165.086 130.919 165.462C131.295 165.838 131.805 166.049 132.337 166.05H239.114C239.646 166.049 240.156 165.838 240.532 165.462C240.908 165.086 241.12 164.576 241.12 164.044V141.743C241.12 141.211 240.908 140.701 240.532 140.325C240.156 139.949 239.646 139.737 239.114 139.737H132.337Z" fill="#E6E6E6"/>
<path d="M133.059 141.301C132.75 141.302 132.455 141.424 132.237 141.642C132.019 141.86 131.896 142.156 131.896 142.464V163.323C131.896 163.631 132.019 163.927 132.237 164.145C132.455 164.363 132.75 164.486 133.059 164.486H238.393C238.701 164.486 238.997 164.363 239.215 164.145C239.433 163.927 239.556 163.631 239.556 163.323V142.464C239.556 142.156 239.433 141.86 239.215 141.642C238.997 141.424 238.701 141.302 238.393 141.301H133.059Z" fill="white"/>
<path d="M231.779 158.766C232.28 158.767 232.761 158.568 233.116 158.214C233.47 157.86 233.67 157.38 233.671 156.879C233.671 156.378 233.473 155.897 233.119 155.542C232.766 155.187 232.285 154.987 231.784 154.986C231.783 154.986 231.781 154.986 231.779 154.986H142.685C142.184 154.987 141.704 155.186 141.35 155.541C140.997 155.895 140.798 156.375 140.798 156.876C140.798 157.377 140.997 157.857 141.35 158.212C141.704 158.566 142.184 158.765 142.685 158.766H231.779Z" fill="#E6E6E6"/>
<path d="M181.023 150.556C181.271 150.556 181.517 150.507 181.747 150.413C181.976 150.318 182.185 150.179 182.361 150.003C182.537 149.828 182.676 149.619 182.771 149.39C182.866 149.16 182.915 148.914 182.915 148.666C182.915 148.417 182.866 148.171 182.771 147.942C182.676 147.712 182.537 147.504 182.361 147.328C182.185 147.153 181.976 147.014 181.747 146.919C181.517 146.824 181.271 146.776 181.023 146.776H142.685C142.437 146.776 142.191 146.824 141.961 146.919C141.731 147.014 141.523 147.153 141.347 147.328C141.171 147.504 141.032 147.712 140.937 147.942C140.841 148.171 140.792 148.417 140.792 148.666C140.792 148.914 140.841 149.16 140.937 149.39C141.032 149.619 141.171 149.828 141.347 150.003C141.523 150.179 141.731 150.318 141.961 150.413C142.191 150.507 142.437 150.556 142.685 150.556H181.023Z" fill="#E4E4E4"/>
<path d="M132.337 29C131.805 29.0006 131.295 29.2122 130.919 29.5883C130.543 29.9643 130.332 30.4742 130.331 31.0061V53.3072C130.332 53.839 130.543 54.3489 130.919 54.725C131.295 55.1011 131.805 55.3127 132.337 55.3133H239.114C239.646 55.3127 240.156 55.1011 240.532 54.725C240.908 54.3489 241.12 53.839 241.12 53.3072V31.0061C241.12 30.4742 240.908 29.9643 240.532 29.5883C240.156 29.2122 239.646 29.0006 239.114 29H132.337Z" fill="#E6E6E6"/>
<path d="M133.059 30.5645C132.75 30.5648 132.455 30.6874 132.237 30.9054C132.019 31.1235 131.896 31.4192 131.896 31.7276V52.586C131.896 52.8944 132.019 53.19 132.237 53.4081C132.455 53.6261 132.75 53.7488 133.059 53.7491H238.393C238.701 53.7487 238.997 53.6261 239.215 53.408C239.433 53.19 239.556 52.8943 239.556 52.586V31.7276C239.556 31.4192 239.433 31.1236 239.215 30.9055C238.997 30.6874 238.701 30.5648 238.393 30.5645H133.059Z" fill="white"/>
<path d="M231.779 48.0293C232.28 48.0297 232.761 47.8311 233.116 47.4772C233.47 47.1233 233.67 46.643 233.671 46.1419C233.671 45.6409 233.473 45.1601 233.119 44.8052C232.766 44.4503 232.285 44.2505 231.784 44.2495C231.783 44.2495 231.781 44.2495 231.779 44.2495H142.685C142.184 44.2502 141.704 44.4497 141.35 44.804C140.997 45.1584 140.798 45.6386 140.798 46.1394C140.798 46.6401 140.997 47.1204 141.35 47.4748C141.704 47.8291 142.184 48.0285 142.685 48.0293H231.779Z" fill="#E6E6E6"/>
<path d="M181.023 39.8188C181.271 39.8192 181.517 39.7706 181.747 39.6757C181.976 39.5809 182.185 39.4418 182.361 39.2663C182.537 39.0907 182.676 38.8823 182.771 38.6528C182.866 38.4233 182.915 38.1774 182.915 37.9289C182.915 37.6805 182.866 37.4345 182.771 37.2051C182.676 36.9756 182.537 36.7671 182.361 36.5916C182.185 36.4161 181.976 36.2769 181.747 36.1821C181.517 36.0873 181.271 36.0387 181.023 36.0391H142.685C142.437 36.0387 142.191 36.0873 141.961 36.1821C141.731 36.2769 141.523 36.4161 141.347 36.5916C141.171 36.7671 141.032 36.9756 140.937 37.2051C140.841 37.4345 140.792 37.6805 140.792 37.9289C140.792 38.1774 140.841 38.4233 140.937 38.6528C141.032 38.8823 141.171 39.0907 141.347 39.2663C141.523 39.4418 141.731 39.5809 141.961 39.6757C142.191 39.7706 142.437 39.8192 142.685 39.8188H181.023Z" fill="#E4E4E4"/>
<path d="M100.891 101.667C100.691 101.858 100.507 102.065 100.34 102.285L75.5927 100.805L72.8896 95.4229L64.2339 98.4407L68.0932 108.434C68.405 109.241 68.9703 109.925 69.7041 110.384C70.4379 110.843 71.3008 111.051 72.1631 110.978L100.266 108.585C100.897 109.444 101.774 110.091 102.781 110.439C103.788 110.787 104.877 110.821 105.904 110.535C106.931 110.249 107.846 109.657 108.528 108.839C109.21 108.02 109.627 107.013 109.722 105.952C109.818 104.891 109.589 103.825 109.064 102.898C108.54 101.97 107.746 101.224 106.787 100.759C105.828 100.294 104.751 100.131 103.697 100.293C102.644 100.456 101.665 100.935 100.891 101.667Z" fill="#FFB6B6"/>
<path d="M74.7537 100.804L64.0487 104.61C63.7441 104.718 63.4197 104.76 63.0977 104.731C62.7757 104.703 62.4636 104.606 62.1826 104.446C61.9016 104.286 61.6584 104.067 61.4696 103.805C61.2807 103.543 61.1506 103.243 61.0881 102.925L58.8987 91.8121C58.3547 90.2508 58.4517 88.5376 59.1684 87.0477C59.8852 85.5579 61.1633 84.4129 62.7227 83.8636C64.2821 83.3144 65.9957 83.4056 67.4879 84.1174C68.9801 84.8292 70.1294 86.1035 70.6838 87.6611L75.9864 97.6288C76.1381 97.9143 76.2266 98.2291 76.2457 98.5518C76.2648 98.8744 76.2141 99.1975 76.0971 99.4988C75.9801 99.8002 75.7996 100.073 75.5677 100.298C75.3359 100.523 75.0582 100.696 74.7537 100.804Z" fill="#3F3D56"/>
<path d="M111.538 89.0302C115.305 89.0302 118.358 85.9764 118.358 82.2094C118.358 78.4424 115.305 75.3887 111.538 75.3887C107.771 75.3887 104.717 78.4424 104.717 82.2094C104.717 85.9764 107.771 89.0302 111.538 89.0302Z" fill="#12B886"/>
</g>
<defs>
<clipPath id="clip0_316_389">
<rect width="264" height="264" fill="white"/>
</clipPath>
</defs>
</svg>
