<svg width="264" height="296" viewBox="0 0 264 296" fill="none" xmlns="http://www.w3.org/2000/svg">
<g clip-path="url(#clip0_124_429)">
<path d="M19.0833 38.1656C29.6227 38.1656 38.1665 29.6219 38.1665 19.0828C38.1665 8.54365 29.6227 0 19.0833 0C8.54387 0 0 8.54365 0 19.0828C0 29.6219 8.54387 38.1656 19.0833 38.1656Z" fill="#F2F2F2"/>
<path d="M13.8429 11.9225C15.3309 11.9225 16.5372 10.7163 16.5372 9.22834C16.5372 7.7404 15.3309 6.53418 13.8429 6.53418C12.3549 6.53418 11.1487 7.7404 11.1487 9.22834C11.1487 10.7163 12.3549 11.9225 13.8429 11.9225Z" fill="#2F2E41"/>
<path d="M18.1537 22.1602C21.9233 22.1602 24.9791 19.1045 24.9791 15.335C24.9791 11.5655 21.9233 8.50977 18.1537 8.50977C14.3841 8.50977 11.3283 11.5655 11.3283 15.335C11.3283 19.1045 14.3841 22.1602 18.1537 22.1602Z" fill="#2F2E41"/>
<path d="M18.7185 22.1584C21.7817 22.1584 24.2649 19.6753 24.2649 16.6122C24.2649 13.5491 21.7817 11.0659 18.7185 11.0659C15.6553 11.0659 13.1721 13.5491 13.1721 16.6122C13.1721 19.6753 15.6553 22.1584 18.7185 22.1584Z" fill="#9E616A"/>
<path d="M22.4851 10.9583C21.5132 10.3659 20.3999 10.0453 19.2618 10.0303C18.1236 10.0153 17.0023 10.3064 16.0151 10.873C15.0279 11.4397 14.2111 12.2612 13.6501 13.2516C13.089 14.2419 12.8044 15.3649 12.8259 16.5029C15.6521 17.2125 18.6212 17.7554 21.6351 16.6726L22.3469 14.9307L22.7665 16.6739C23.6843 17.0491 24.6045 17.3665 25.5247 16.6703C25.5623 15.5355 25.3014 14.4106 24.7679 13.4083C24.2345 12.4059 23.4473 11.5611 22.4851 10.9583Z" fill="#2F2E41"/>
<path d="M11.3344 1.91454C10.3885 1.51081 9.34846 1.37983 8.33195 1.53642C7.31545 1.69301 6.36306 2.13091 5.58249 2.80061C4.81911 3.4894 4.23797 4.35633 3.89089 5.32415C3.5438 6.29197 3.44153 7.33063 3.59319 8.34756C3.89869 10.4159 5.15618 12.1971 6.31525 13.9372C7.47433 15.6773 8.60674 17.5841 8.60545 19.6749C8.60452 21.1808 8.00641 22.6249 6.94228 23.6904C5.87815 24.756 4.43485 25.3561 2.92891 25.3591C4.69638 26.1199 6.54115 26.8957 8.46333 26.8055C10.3855 26.7154 12.4002 25.4797 12.7138 23.5811C12.9397 22.2132 12.2685 20.8792 11.7088 19.6108C10.797 17.5438 10.138 15.3744 9.74594 13.1496C9.49145 12.0967 9.50434 10.9969 9.78345 9.9503C10.0591 9.19363 10.5707 8.54557 11.2426 8.1017C11.9146 7.65782 12.7114 7.44162 13.5156 7.48498L14.1507 6.91359C14.2595 5.89094 14.0467 4.85981 13.5419 3.96379C13.0371 3.06776 12.2655 2.35143 11.3344 1.91454Z" fill="#2F2E41"/>
<path d="M33.442 31.8506C30.1359 35.6124 25.483 37.9232 20.4879 38.2842C15.4927 38.6451 10.5559 37.0274 6.74325 33.7801L8.38005 29.2129C8.74995 28.4018 9.33368 27.7065 10.0686 27.2019C10.8036 26.6972 11.6621 26.4021 12.552 26.3482L13.5933 26.2842L16.0763 24.1428C16.0763 24.1428 22.7665 23.9039 22.6673 23.7896L26.7198 26.227L26.7164 26.2102L28.3095 26.3078C29.1995 26.3615 30.0581 26.6565 30.7931 27.1612C31.5281 27.6659 32.1117 28.3612 32.4814 29.1726L33.442 31.8506Z" fill="#12B886"/>
<path d="M38.1665 95.1161C38.1598 98.8903 37.0341 102.578 34.9316 105.712C32.8292 108.847 29.8444 111.287 26.3549 112.725C22.8653 114.164 19.0276 114.535 15.3271 113.792C11.6266 113.049 8.22957 111.225 5.56546 108.552C2.90135 105.878 1.08987 102.475 0.360105 98.772C-0.369663 95.069 0.0150561 91.2327 1.4656 87.7484C2.91615 84.264 5.36739 81.288 8.50933 79.1968C11.6513 77.1055 15.3428 75.9928 19.1171 75.9995C21.625 75.9975 24.1086 76.491 26.4251 77.4518C28.7416 78.4126 30.8454 79.8217 32.6156 81.5982C34.3858 83.3746 35.7875 85.4834 36.7401 87.8032C37.6927 90.1231 38.1775 92.6083 38.1665 95.1161Z" fill="#F2F2F2"/>
<path d="M10.2383 88.8748C11.0274 86.3601 12.8218 84.0537 15.3035 83.2036C17.7852 82.3535 21.4192 83.6484 23.2849 85.5078C26.6977 88.909 27.5306 100.593 25.1858 104.286C24.7195 104.261 23.1102 104.243 22.6382 104.225L21.9704 101.999V104.203C21.2184 104.18 20.4605 104.164 19.6968 104.155C17.136 104.123 14.6873 103.1 12.8654 101.3C11.0435 99.5003 9.99033 97.0643 9.92734 94.5042C9.86623 92.055 9.92738 89.8658 10.2383 88.8748Z" fill="#2F2E41"/>
<path d="M18.8002 97.2089C21.8039 97.2089 24.2388 94.7741 24.2388 91.7705C24.2388 88.7669 21.8039 86.332 18.8002 86.332C15.7966 86.332 13.3616 88.7669 13.3616 91.7705C13.3616 94.7741 15.7966 97.2089 18.8002 97.2089Z" fill="#FFB6B6"/>
<path d="M14.1066 86.9944L20.3686 83.8589C21.6488 84.4358 22.7514 85.3446 23.562 86.4912C24.3726 87.6378 24.8616 88.9804 24.9785 90.3797L25.1346 92.2493L22.5123 91.5818L22.2251 89.1912L21.7798 91.3953L20.5696 91.0874L20.5811 87.376L19.3702 91.0848L15.0481 90.0918L14.1066 86.9944Z" fill="#2F2E41"/>
<path d="M33.2443 107.71C29.9382 111.472 25.2854 113.783 20.2902 114.144C15.295 114.505 10.3583 112.887 6.54559 109.64L8.18239 105.073C8.55229 104.262 9.13601 103.566 9.87097 103.062C10.6059 102.557 11.4644 102.262 12.3543 102.208L13.3956 102.144L15.8786 100.003C15.8786 100.003 22.5689 99.7638 22.4696 99.6494L26.5221 102.087L26.5188 102.07L28.1118 102.168C29.0018 102.221 29.8604 102.516 30.5954 103.021C31.3304 103.526 31.9141 104.221 32.2838 105.032L33.2443 107.71Z" fill="#12B886"/>
<path d="M19.0833 190.025C29.6227 190.025 38.1665 181.481 38.1665 170.942C38.1665 160.403 29.6227 151.859 19.0833 151.859C8.54387 151.859 0 160.403 0 170.942C0 181.481 8.54387 190.025 19.0833 190.025Z" fill="#F2F2F2"/>
<path d="M18.5566 173.306C21.9209 173.306 24.6482 170.579 24.6482 167.215C24.6482 163.851 21.9209 161.124 18.5566 161.124C15.1923 161.124 12.465 163.851 12.465 167.215C12.465 170.579 15.1923 173.306 18.5566 173.306Z" fill="#FFB6B6"/>
<path d="M33.3999 183.71C30.0938 187.472 25.441 189.783 20.4458 190.144C15.4506 190.505 10.5139 188.887 6.70118 185.639L8.33799 181.072C8.70789 180.261 9.29161 179.566 10.0266 179.061C10.7615 178.557 11.62 178.261 12.5099 178.208L13.5512 178.144L16.0342 176.002C16.0342 176.002 22.7245 175.763 22.6252 175.649L26.6777 178.086L26.6743 178.07L28.2674 178.167C29.1574 178.221 30.016 178.516 30.751 179.021C31.486 179.525 32.0697 180.221 32.4394 181.032L33.3999 183.71Z" fill="#12B886"/>
<path d="M24.9812 163.437C24.4664 161.595 23.2969 160.003 21.6921 158.962C20.4132 158.144 18.8174 157.727 17.3685 158.159C15.9196 158.592 14.7201 160.014 14.8149 161.55C14.5465 161.479 14.2637 161.485 13.9986 161.567C13.7334 161.649 13.4964 161.804 13.3145 162.013C12.951 162.442 12.6983 162.954 12.5784 163.503C12.1135 165.226 12.1443 167.045 12.6673 168.75L12.6385 168.995C12.9883 168.902 13.3121 168.73 13.5853 168.493C13.8585 168.255 14.0739 167.959 14.215 167.625C14.5484 166.979 14.7402 166.262 15.1016 165.632C15.2575 165.306 15.4928 165.024 15.7858 164.812C16.0788 164.6 16.4202 164.466 16.7788 164.42L16.7158 165.514C17.3316 165.197 17.9475 164.879 18.5634 164.562L18.1239 165.613L19.7375 164.939C19.6774 165.276 19.6172 165.613 19.5571 165.95C19.6981 165.657 19.897 165.396 20.1418 165.183C20.3865 164.97 20.672 164.808 20.981 164.708C21.29 164.608 21.616 164.572 21.9394 164.602C22.2628 164.632 22.5767 164.727 22.8623 164.881C23.5055 165.314 23.9691 165.966 24.1665 166.716C24.3618 167.464 24.4667 168.232 24.4788 169.005C25.3099 167.27 25.4883 165.293 24.9812 163.437Z" fill="#2F2E41"/>
<path d="M43.6002 51.6915H1.63536C1.42043 51.6918 1.20753 51.6498 1.00886 51.5678C0.810192 51.4858 0.629646 51.3654 0.477544 51.2136C0.325442 51.0617 0.204767 50.8813 0.122436 50.6828C0.0401049 50.4843 -0.0022738 50.2715 -0.0022738 50.0565C-0.0022738 49.8416 0.0401049 49.6288 0.122436 49.4303C0.204767 49.2317 0.325442 49.0514 0.477544 48.8995C0.629646 48.7477 0.810192 48.6273 1.00886 48.5453C1.20753 48.4633 1.42043 48.4212 1.63536 48.4216H43.6002C45.7087 48.3921 45.7298 51.7212 43.6002 51.6915Z" fill="#E4E4E4"/>
<path d="M100.131 60.2437H1.63536C1.20173 60.2437 0.785859 60.0715 0.479238 59.7649C0.172618 59.4582 0.000364065 59.0424 0.000364065 58.6088C0.000364065 58.1752 0.172618 57.7593 0.479238 57.4527C0.785859 57.1461 1.20173 56.9738 1.63536 56.9738H100.131C102.24 56.9444 102.261 60.2734 100.131 60.2437Z" fill="#E4E4E4"/>
<path d="M134.444 64.8424C140.249 64.8424 144.954 60.137 144.954 54.3326C144.954 48.5282 140.249 43.8228 134.444 43.8228C128.64 43.8228 123.934 48.5282 123.934 54.3326C123.934 60.137 128.64 64.8424 134.444 64.8424Z" fill="#12B886"/>
<path d="M133.01 59.8024C132.829 59.8024 132.65 59.7601 132.488 59.6789C132.325 59.5978 132.184 59.4799 132.075 59.3347L129.208 55.5116C129.022 55.2636 128.942 54.9518 128.986 54.6448C129.03 54.3379 129.194 54.061 129.442 53.875C129.69 53.6889 130.002 53.6091 130.309 53.6529C130.616 53.6968 130.892 53.8608 131.079 54.1088L132.954 56.6097L137.772 49.3831C137.858 49.2552 137.967 49.1454 138.095 49.0598C138.222 48.9743 138.365 48.9148 138.516 48.8846C138.667 48.8544 138.822 48.8542 138.972 48.884C139.123 48.9138 139.266 48.973 139.394 49.0582C139.522 49.1434 139.632 49.2529 139.717 49.3805C139.803 49.5082 139.862 49.6514 139.892 49.802C139.922 49.9526 139.922 50.1077 139.892 50.2584C139.862 50.409 139.803 50.5523 139.718 50.68L133.983 59.2818C133.88 59.4373 133.74 59.5657 133.576 59.6563C133.413 59.7468 133.23 59.7968 133.043 59.802C133.032 59.8022 133.021 59.8024 133.01 59.8024Z" fill="white"/>
<path d="M43.6002 127.621H1.63536C1.20173 127.621 0.785859 127.449 0.479238 127.142C0.172618 126.836 0.000364065 126.42 0.000364065 125.986C0.000364065 125.553 0.172618 125.137 0.479238 124.83C0.785859 124.524 1.20173 124.351 1.63536 124.351H43.6002C45.7087 124.322 45.7298 127.651 43.6002 127.621Z" fill="#E4E4E4"/>
<path d="M100.131 136.173H1.63536C1.42043 136.174 1.20753 136.132 1.00886 136.05C0.810192 135.968 0.629646 135.847 0.477544 135.695C0.325442 135.544 0.204767 135.363 0.122436 135.165C0.0401049 134.966 -0.0022738 134.753 -0.0022738 134.538C-0.0022738 134.324 0.0401049 134.111 0.122436 133.912C0.204767 133.714 0.325442 133.533 0.477544 133.381C0.629646 133.23 0.810192 133.109 1.00886 133.027C1.20753 132.945 1.42043 132.903 1.63536 132.904H100.131C102.24 132.874 102.261 136.203 100.131 136.173Z" fill="#E4E4E4"/>
<path d="M134.444 140.772C140.249 140.772 144.954 136.067 144.954 130.262C144.954 124.458 140.249 119.752 134.444 119.752C128.64 119.752 123.934 124.458 123.934 130.262C123.934 136.067 128.64 140.772 134.444 140.772Z" fill="#12B886"/>
<path d="M133.01 135.732C132.829 135.732 132.65 135.69 132.488 135.609C132.325 135.528 132.184 135.41 132.075 135.265L129.208 131.441C129.116 131.319 129.049 131.179 129.011 131.03C128.973 130.881 128.964 130.727 128.986 130.575C129.008 130.423 129.059 130.277 129.137 130.144C129.216 130.012 129.319 129.897 129.442 129.805C129.565 129.713 129.704 129.646 129.853 129.608C130.002 129.569 130.157 129.561 130.309 129.583C130.461 129.604 130.607 129.656 130.739 129.734C130.871 129.812 130.986 129.916 131.079 130.039L132.954 132.54L137.772 125.313C137.944 125.055 138.212 124.876 138.516 124.816C138.82 124.755 139.135 124.817 139.393 124.989C139.651 125.161 139.83 125.429 139.891 125.732C139.952 126.036 139.89 126.352 139.718 126.61L133.983 135.212C133.88 135.367 133.74 135.496 133.576 135.586C133.413 135.677 133.23 135.727 133.043 135.732C133.032 135.732 133.021 135.732 133.01 135.732Z" fill="white"/>
<path d="M43.6002 203.551H1.63536C1.20173 203.551 0.785858 203.379 0.479238 203.072C0.172618 202.765 0.000364065 202.35 0.000364065 201.916C0.000364065 201.482 0.172618 201.066 0.479238 200.76C0.785858 200.453 1.20173 200.281 1.63536 200.281H43.6002C45.7087 200.252 45.7298 203.581 43.6002 203.551Z" fill="#E4E4E4"/>
<path d="M100.131 212.103H1.63536C1.20173 212.103 0.785859 211.931 0.479238 211.624C0.172618 211.318 0.000364065 210.902 0.000364065 210.468C0.000364065 210.035 0.172618 209.619 0.479238 209.312C0.785859 209.005 1.20173 208.833 1.63536 208.833H100.131C102.24 208.804 102.261 212.133 100.131 212.103Z" fill="#E4E4E4"/>
<path d="M134.444 216.702C140.249 216.702 144.954 211.996 144.954 206.192C144.954 200.388 140.249 195.682 134.444 195.682C128.64 195.682 123.934 200.388 123.934 206.192C123.934 211.996 128.64 216.702 134.444 216.702Z" fill="#12B886"/>
<path d="M133.01 211.662C132.829 211.662 132.65 211.619 132.488 211.538C132.325 211.457 132.184 211.339 132.075 211.194L129.208 207.371C129.116 207.248 129.049 207.108 129.011 206.96C128.973 206.811 128.964 206.656 128.986 206.504C129.008 206.352 129.059 206.206 129.137 206.074C129.216 205.942 129.319 205.826 129.442 205.734C129.565 205.642 129.704 205.575 129.853 205.537C130.002 205.499 130.157 205.491 130.309 205.512C130.461 205.534 130.607 205.585 130.739 205.664C130.871 205.742 130.986 205.845 131.079 205.968L132.954 208.469L137.772 201.242C137.858 201.115 137.967 201.005 138.095 200.919C138.222 200.834 138.365 200.774 138.516 200.744C138.667 200.714 138.822 200.714 138.972 200.743C139.123 200.773 139.266 200.832 139.394 200.918C139.522 201.003 139.632 201.112 139.717 201.24C139.803 201.368 139.862 201.511 139.892 201.661C139.922 201.812 139.922 201.967 139.892 202.118C139.862 202.268 139.803 202.412 139.718 202.539L133.983 211.141C133.88 211.297 133.74 211.425 133.576 211.516C133.413 211.606 133.23 211.656 133.043 211.661C133.032 211.662 133.021 211.662 133.01 211.662Z" fill="white"/>
<path d="M177.306 170.097H204.846L198.067 150.185L179.424 150.608L177.306 170.097Z" fill="#9E616A"/>
<path d="M199.53 284.852H194.095L191.509 263.887L199.531 263.888L199.53 284.852Z" fill="#9E616A"/>
<path d="M202.454 295.172H198.598L197.909 291.531L196.146 295.172H185.917C185.426 295.172 184.949 295.015 184.554 294.725C184.159 294.434 183.867 294.025 183.721 293.557C183.575 293.089 183.583 292.586 183.743 292.123C183.903 291.659 184.206 291.259 184.61 290.98L192.779 285.339V281.658L201.371 282.171L202.454 295.172Z" fill="#2F2E41"/>
<path d="M190.209 284.852H184.774L182.188 263.887L190.21 263.888L190.209 284.852Z" fill="#9E616A"/>
<path d="M193.133 295.172H189.276L188.588 291.531L186.825 295.172H176.595C176.105 295.172 175.628 295.015 175.233 294.725C174.838 294.434 174.546 294.025 174.4 293.557C174.254 293.089 174.262 292.586 174.422 292.123C174.581 291.659 174.885 291.259 175.289 290.98L183.458 285.339V281.658L192.05 282.171L193.133 295.172Z" fill="#2F2E41"/>
<path d="M177.387 166.284L204.846 165.86C204.846 165.86 214.072 185.306 210.352 197.319L199.575 232.596L190.716 277.877L182.568 275.405L180.285 271.972L181.966 265.848L181.272 262.42L178.577 231.107V230.683L177.306 217.549C171.584 197.999 173.107 186.199 177.387 166.284Z" fill="#2F2E41"/>
<path d="M196.687 230.493L201.734 267.06L200.609 268.814L201.734 271.699L200.348 278.534L192.312 280.094L184.695 247.407L196.687 230.493Z" fill="#2F2E41"/>
<path d="M178.126 160.605C178.12 160.605 178.113 160.606 178.107 160.606C177.88 160.607 177.658 160.535 177.475 160.401C177.292 160.266 177.157 160.077 177.089 159.86C175.759 155.658 174.324 150.498 175.038 149.784C175.348 149.517 175.711 149.319 176.104 149.202C176.958 148.877 177.634 148.621 177.105 147.035C176.727 145.9 177.91 144.642 177.314 143.872C176.554 142.891 176.733 141.95 177.314 141.33C177.86 140.747 176.287 138.045 177.165 135.274C177.193 135.186 177.201 135.093 177.19 135.001C177.178 134.91 177.147 134.822 177.098 134.743C175.996 132.978 172.786 129.003 176.699 125.121C180.294 121.555 181.832 114.584 182.856 114.074C183.003 114.001 183.116 113.874 183.171 113.72L184.528 110.001C184.603 109.796 184.74 109.618 184.919 109.493C185.099 109.367 185.313 109.3 185.532 109.299H196.05C196.21 109.299 196.369 109.335 196.513 109.404C196.658 109.474 196.785 109.575 196.885 109.7L201.837 115.891C201.899 115.968 201.95 116.053 201.988 116.144C202.643 117.71 208.31 131.599 205.456 136.9L204.932 137.871C202.414 142.535 201.371 144.465 202.453 145.547C203.45 146.544 203.025 147.282 202.771 147.724C202.692 147.86 202.603 148.015 202.619 148.084C202.911 149.401 202.17 149.592 201.814 149.684C201.79 149.69 201.762 149.697 201.736 149.704C201.825 149.822 201.923 149.933 202.03 150.034C202.157 150.139 202.26 150.269 202.333 150.416C202.406 150.564 202.448 150.725 202.454 150.889C202.421 151.073 202.349 151.247 202.244 151.4C202.139 151.554 202.002 151.684 201.844 151.781C201.68 151.918 201.495 152.073 201.491 152.176C201.489 152.237 201.56 152.315 201.603 152.356C201.786 152.533 202.038 152.736 202.303 152.951C203.073 153.574 203.946 154.28 203.981 154.958C203.987 155.076 203.967 155.193 203.923 155.303C203.879 155.412 203.811 155.511 203.724 155.591L201.744 157.57C201.602 157.82 202.256 159.371 202.55 159.719L202.687 159.881L202.588 159.965C202.674 160.107 202.725 160.267 202.737 160.432C202.748 160.598 202.719 160.763 202.653 160.915C202.572 161.088 202.443 161.232 202.281 161.332C202.12 161.432 201.932 161.483 201.742 161.478L178.126 160.605Z" fill="#3F3D56"/>
<path d="M143.632 131.772C144.442 132.605 145.546 133.086 146.707 133.112C147.868 133.138 148.993 132.707 149.84 131.911C150.026 131.735 150.197 131.543 150.349 131.336L165.27 135.858L162.98 128.169L149.163 125.053C148.174 124.433 146.981 124.226 145.841 124.478C144.701 124.73 143.707 125.42 143.072 126.4C142.542 127.226 142.309 128.208 142.41 129.184C142.512 130.16 142.943 131.073 143.632 131.772Z" fill="#9E616A"/>
<path d="M152.999 133.376L155.2 125.969L162.787 125.927L164.349 128.001L166.871 127.098L174.881 129.137L183.344 115.464C183.769 114.777 184.34 114.192 185.018 113.751C185.695 113.31 186.461 113.024 187.261 112.913C188.061 112.802 188.876 112.869 189.648 113.109C190.419 113.349 191.129 113.756 191.725 114.301C192.65 115.141 193.26 116.271 193.453 117.505C193.646 118.739 193.41 120.002 192.785 121.084L180.905 141.847L152.999 133.376Z" fill="#3F3D56"/>
<path d="M163.797 167.156C164.958 167.196 166.088 166.777 166.943 165.991C167.798 165.205 168.31 164.115 168.369 162.955C168.381 162.698 168.371 162.441 168.338 162.187L182.228 155.106L175.248 151.149L163.128 158.48C161.985 158.718 160.981 159.396 160.334 160.367C159.687 161.339 159.449 162.526 159.67 163.672C159.861 164.635 160.373 165.504 161.123 166.137C161.873 166.771 162.816 167.13 163.797 167.156Z" fill="#9E616A"/>
<path d="M171.662 161.82L168.114 154.956L173.554 149.667L176.118 150.08L177.31 147.681L184.497 143.599L181.121 127.878C180.951 127.088 180.958 126.27 181.141 125.483C181.323 124.696 181.677 123.959 182.177 123.324C182.677 122.689 183.311 122.173 184.033 121.811C184.756 121.449 185.549 121.251 186.357 121.231C187.606 121.195 188.829 121.587 189.823 122.343C190.818 123.099 191.523 124.173 191.822 125.386L197.649 148.587L171.662 161.82Z" fill="#3F3D56"/>
<path d="M191.315 107.33C196.893 107.33 201.415 102.808 201.415 97.2304C201.415 91.6526 196.893 87.1309 191.315 87.1309C185.737 87.1309 181.215 91.6526 181.215 97.2304C181.215 102.808 185.737 107.33 191.315 107.33Z" fill="#9E616A"/>
<path d="M192.839 84.9388L194.065 85.265L194.481 85.3758L199.144 86.6169C203.277 87.7171 205.625 92.3784 204.387 97.0282C206.672 100.99 204.692 104.664 201.093 108.229C196.479 107.596 191.8 107.601 187.188 108.246L187.268 105.576L185.226 108.577C184.061 108.802 182.892 109.076 181.719 109.4C184.385 104.15 186.35 98.7281 186.685 94.1988L184.549 93.6304L185.171 91.2936L183.824 93.4374L179.953 92.407C180.309 91.0706 180.924 89.8172 181.764 88.7186C182.605 87.62 183.653 86.6976 184.85 86.0041C186.046 85.3106 187.368 84.8596 188.739 84.6769C190.109 84.4941 191.503 84.5831 192.839 84.9388Z" fill="#2F2E41"/>
<path d="M201.447 91.1812C204.074 91.1812 206.203 89.0518 206.203 86.4251C206.203 83.7983 204.074 81.6689 201.447 81.6689C198.82 81.6689 196.691 83.7983 196.691 86.4251C196.691 89.0518 198.82 91.1812 201.447 91.1812Z" fill="#2F2E41"/>
<path d="M250.549 294.225C253.925 286.315 256.307 277.706 255.18 269.185C254.793 266.296 253.952 263.487 252.688 260.86C251.67 258.719 250.355 256.732 248.782 254.958C248.238 254.333 247.492 253.918 246.673 253.786C245.855 253.654 245.016 253.814 244.304 254.238C244.193 254.302 244.083 254.369 243.982 254.441C243.43 254.83 242.995 255.362 242.723 255.979C242.671 256.098 242.627 256.219 242.592 256.344C242.436 256.864 242.394 257.412 242.469 257.95C243.063 262.334 242.934 266.787 242.088 271.13C241.872 272.236 241.607 273.332 241.295 274.418C240.594 273.543 239.849 272.704 239.062 271.906C237.023 269.839 234.671 268.106 232.093 266.771H232.089C232.076 266.762 232.067 266.758 232.055 266.749C228.928 265.156 224.759 265.817 222.323 266.902C222.162 266.97 222.009 267.046 221.861 267.118C220.59 267.77 219.958 268.52 220.501 269.012C220.624 269.118 220.746 269.228 220.861 269.338C224.554 272.752 227.58 276.824 229.784 281.345V281.349C230.66 283.149 231.398 285.013 231.991 286.925C232.809 289.564 233.487 292.492 235.084 294.644C235.247 294.871 235.424 295.087 235.614 295.293L249.884 295.178C249.917 295.161 249.947 295.148 249.981 295.132L250.549 295.153C250.528 295.051 250.502 294.949 250.477 294.848V294.839C250.464 294.784 250.447 294.725 250.434 294.674C250.422 294.632 250.413 294.593 250.405 294.56C250.43 294.496 250.455 294.437 250.485 294.373C250.506 294.322 250.528 294.276 250.549 294.225Z" fill="#F0F0F0"/>
<path d="M250.477 294.839C250.472 294.871 250.46 294.901 250.44 294.926C250.421 294.952 250.396 294.972 250.366 294.985C250.337 294.998 250.305 295.003 250.273 294.999C250.241 294.996 250.21 294.985 250.184 294.966C249.598 294.541 248.955 294.2 248.273 293.954C248.269 293.949 248.269 293.954 248.269 293.954C247.409 293.645 246.525 293.409 245.625 293.25C245.617 293.25 245.613 293.246 245.604 293.246C245.24 293.174 244.875 293.111 244.511 293.043C242.74 292.717 240.939 292.323 239.406 291.314C238.781 290.928 238.246 290.413 237.835 289.805C237.424 289.197 237.146 288.508 237.02 287.785C236.796 286.366 237.08 284.938 237.198 283.523C237.207 283.421 237.215 283.315 237.219 283.213C237.228 283.082 237.232 282.955 237.232 282.828C237.276 281.543 237.017 280.266 236.478 279.1C235.785 277.703 234.876 276.424 233.783 275.312C233.22 274.706 232.632 274.123 232.021 273.562H232.017C231.991 273.537 231.97 273.515 231.944 273.494C231.944 273.49 231.94 273.486 231.936 273.482C229.321 271.106 226.356 269.148 223.144 267.677C223.03 267.626 222.911 267.571 222.793 267.52C222.484 267.381 222.174 267.249 221.861 267.118C222.009 267.046 222.161 266.97 222.322 266.902C225.905 268.417 229.21 270.516 232.105 273.113C232.203 273.198 232.3 273.287 232.394 273.376C233.127 274.054 233.824 274.764 234.487 275.507C235.546 276.648 236.404 277.96 237.025 279.388C237.48 280.543 237.68 281.783 237.613 283.023C237.605 283.26 237.588 283.497 237.567 283.739C237.435 285.167 237.143 286.641 237.469 288.069C237.842 289.696 239.105 290.831 240.571 291.526C241.541 291.959 242.56 292.274 243.604 292.467C245.765 292.92 247.998 293.14 249.888 294.301H249.892C249.922 294.322 249.951 294.339 249.977 294.356C249.981 294.356 249.981 294.356 249.981 294.36C250.117 294.442 250.249 294.531 250.375 294.627C250.383 294.632 250.392 294.64 250.4 294.644C250.413 294.653 250.424 294.663 250.434 294.674C250.454 294.696 250.468 294.723 250.475 294.751C250.483 294.78 250.483 294.81 250.477 294.839Z" fill="white"/>
<path d="M232.282 273.521C233.052 272.566 233.458 271.369 233.426 270.143C233.395 268.917 232.929 267.742 232.111 266.827C231.945 266.643 231.65 266.893 231.817 267.077C232.58 267.927 233.014 269.022 233.041 270.163C233.068 271.305 232.686 272.419 231.963 273.304C231.807 273.496 232.126 273.713 232.282 273.521Z" fill="white"/>
<path d="M237.355 282.815C234.864 283.104 232.356 282.444 230.33 280.967C230.13 280.82 229.913 281.139 230.113 281.286C232.224 282.819 234.836 283.501 237.427 283.194C237.674 283.164 237.601 282.785 237.355 282.815Z" fill="white"/>
<path d="M223.17 267.631C223.161 267.648 223.153 267.66 223.144 267.677C222.911 268.106 222.585 268.478 222.19 268.765C221.795 269.052 221.341 269.248 220.861 269.338C220.746 269.228 220.624 269.118 220.501 269.012C220.52 269 220.542 268.993 220.564 268.991C221.026 268.94 221.468 268.78 221.856 268.524C222.243 268.269 222.565 267.925 222.793 267.52C222.814 267.487 222.835 267.448 222.852 267.415C222.866 267.394 222.884 267.376 222.905 267.362C222.926 267.348 222.95 267.338 222.975 267.333C223 267.329 223.025 267.329 223.05 267.334C223.075 267.339 223.098 267.349 223.119 267.364C223.16 267.394 223.188 267.438 223.197 267.487C223.207 267.537 223.197 267.588 223.17 267.631Z" fill="white"/>
<path d="M250.549 294.225C250.55 294.253 250.545 294.281 250.534 294.307C250.523 294.332 250.506 294.355 250.485 294.373C250.452 294.398 250.412 294.414 250.371 294.42C250.329 294.429 250.285 294.421 250.248 294.398C250.212 294.375 250.186 294.339 250.176 294.297C249.591 292.331 248.159 290.823 246.803 289.344C245.583 288.018 244.384 286.62 243.77 284.896C243.504 284.211 243.386 283.477 243.424 282.743C243.462 282.009 243.655 281.292 243.99 280.638C244.201 280.247 244.446 279.875 244.723 279.528C245.329 278.757 246.049 278.07 246.697 277.341C246.765 277.265 246.833 277.185 246.896 277.108C246.985 277.011 247.066 276.909 247.142 276.808C247.95 275.808 248.512 274.633 248.782 273.376C249.071 271.843 249.116 270.275 248.913 268.728C248.829 267.906 248.711 267.09 248.562 266.279C248.553 266.241 248.549 266.207 248.54 266.173C247.886 262.696 246.697 259.342 245.015 256.23C244.952 256.115 244.892 256.001 244.829 255.891C244.558 255.399 244.278 254.916 243.981 254.442C244.083 254.37 244.193 254.302 244.303 254.238C245.275 255.812 246.121 257.459 246.833 259.166C247.753 261.355 248.445 263.634 248.896 265.966C248.926 266.093 248.947 266.224 248.968 266.351C249.146 267.33 249.278 268.321 249.358 269.309C249.517 270.857 249.411 272.422 249.045 273.935C248.712 275.136 248.124 276.25 247.32 277.202C247.176 277.384 247.024 277.562 246.863 277.735C246.219 278.439 245.507 279.121 244.926 279.888C244.63 280.273 244.378 280.691 244.176 281.133C243.494 282.659 243.816 284.328 244.57 285.76C245.935 288.366 248.536 290.141 249.922 292.696C250.178 293.166 250.385 293.662 250.54 294.174C250.545 294.191 250.548 294.208 250.549 294.225Z" fill="white"/>
<path d="M248.793 266.396C249.983 266.097 251.027 265.385 251.741 264.387C252.454 263.389 252.789 262.17 252.686 260.948C252.665 260.701 252.279 260.723 252.301 260.971C252.399 262.109 252.086 263.244 251.42 264.172C250.754 265.1 249.779 265.759 248.669 266.031C248.428 266.09 248.553 266.455 248.793 266.396Z" fill="white"/>
<path d="M247.247 276.871C245.085 275.602 243.479 273.565 242.751 271.166C242.679 270.928 242.314 271.052 242.386 271.29C243.148 273.785 244.823 275.902 247.077 277.217C247.292 277.342 247.461 276.995 247.247 276.871Z" fill="white"/>
<path d="M245.062 256.208C245.045 256.217 245.032 256.221 245.015 256.23C244.252 256.578 243.384 256.619 242.592 256.344C242.627 256.22 242.671 256.098 242.723 255.98C243.411 256.216 244.163 256.184 244.829 255.891C244.867 255.878 244.901 255.861 244.939 255.844C244.987 255.827 245.04 255.831 245.086 255.853C245.132 255.875 245.168 255.914 245.185 255.963C245.199 256.012 245.194 256.064 245.171 256.109C245.148 256.155 245.109 256.19 245.062 256.208Z" fill="white"/>
<path d="M263.496 296H116.057C115.99 296 115.925 295.987 115.863 295.962C115.802 295.937 115.746 295.9 115.699 295.853C115.652 295.806 115.615 295.75 115.589 295.689C115.564 295.628 115.551 295.562 115.551 295.496C115.551 295.429 115.564 295.364 115.589 295.302C115.615 295.241 115.652 295.185 115.699 295.138C115.746 295.092 115.802 295.054 115.863 295.029C115.925 295.004 115.99 294.991 116.057 294.991H263.496C263.562 294.991 263.628 295.004 263.689 295.029C263.75 295.054 263.806 295.092 263.853 295.138C263.9 295.185 263.937 295.241 263.963 295.302C263.988 295.364 264.001 295.429 264.001 295.496C264.001 295.562 263.988 295.628 263.963 295.689C263.937 295.75 263.9 295.806 263.853 295.853C263.806 295.9 263.75 295.937 263.689 295.962C263.628 295.987 263.562 296 263.496 296Z" fill="#CCCCCC"/>
</g>
<defs>
<clipPath id="clip0_124_429">
<rect width="264" height="296" fill="white"/>
</clipPath>
</defs>
</svg>
